<?xml version="1.0" encoding="utf-8"?>
<!-- Svg Vector Icons : http://www.onlinewebfonts.com/icon -->
<!DOCTYPE svg PUBLIC "-//W3C//DTD SVG 1.1//EN" "http://www.w3.org/Graphics/SVG/1.1/DTD/svg11.dtd">
<svg version="1.1" xmlns="http://www.w3.org/2000/svg" xmlns:xlink="http://www.w3.org/1999/xlink" x="0px" y="0px" viewBox="0 0 1000 1000" enable-background="new 0 0 1000 1000" xml:space="preserve">
<metadata> Svg Vector Icons : http://www.onlinewebfonts.com/icon </metadata>
<g><g><path d="M368.9,787.4l-49.6,49.3c-42.9,42.6-112.9,42.6-155.9,0c-20.6-20.5-31.9-47.7-31.9-76.7s11.4-56.1,31.9-76.7l182.5-181c37.8-37.5,109-92.8,160.8-41.3c23.8,23.6,62.2,23.5,85.9-0.3c23.6-23.8,23.5-62.3-0.4-85.9c-88.1-87.5-218.4-71.3-331.9,41.3L77.9,597.3C34.1,640.7,10,698.6,10,760.1c0,61.6,24.1,119.4,67.9,162.8c45.1,44.7,104.2,67.1,163.5,67.1s118.5-22.4,163.5-67.1l49.7-49.3c23.8-23.6,23.9-62,0.3-85.8C431.1,764,392.7,763.9,368.9,787.4L368.9,787.4z M922.1,84C827.3-9.9,694.9-15,607.3,72l-61.8,61.4c-23.8,23.6-24,62-0.4,85.8c23.6,23.8,62,23.9,85.9,0.3l61.9-61.3c45.3-45.1,104.8-26.4,143.7,12.1c20.6,20.5,32,47.7,32,76.7c0,29-11.4,56.2-32,76.6L641.8,516.7C552.7,605,511,563.6,493.1,545.9c-23.8-23.6-62.2-23.5-85.8,0.3c-23.6,23.8-23.5,62.3,0.3,85.8c40.9,40.5,87.6,60.6,136.5,60.6c59.8,0,123.1-30.1,183.3-89.9l194.8-193.1c43.6-43.5,67.8-101.3,67.8-162.8C990,185.3,965.8,127.5,922.1,84L922.1,84z"/></g></g>
</svg>